<svg xmlns="http://www.w3.org/2000/svg" viewBox="0 0 64 64" fill="none">
  <rect x="1.25" y="1.25" width="61.5" height="61.5" rx="6" stroke="#e0a23a" stroke-width="2.5"/>
  <path fill="#f3ecdf" d="M6 34h18l1 6H7z"/>
  <path fill="#f3ecdf" d="M21 29c2-7 9-11 16-9 0-7 7-12 18-11 4 2 5 7 3 11-5 1-9 2-12 5 2 5-1 11-7 13-7 2-15 0-18-4z"/>
  <circle cx="46" cy="20" r="3.2" fill="#10160e"/>
  <circle cx="47.1" cy="20" r="1.3" fill="#e0a23a"/>
  <path fill="#f3ecdf" d="M27 37l3 14 5 2-2-5-1-11z"/>
  <path fill="#f3ecdf" d="M30 51h10l-1 3H29z"/>
  <path fill="#e0a23a" d="M35 40c7-1 14 5 10 14-5-2-8-1-12 0 0-5 0-10 2-14z"/>
</svg>
